{
.appVersion = "3151";
.formatVersion = 3;
date = "2023-09-25 15:22:47 +0000";
familyName = "New Font";
fontMaster = (
{
id = m01;
metricValues = (
{
over = 16;
pos = 800;
},
{
over = 16;
pos = 700;
},
{
over = 16;
pos = 500;
},
{
over = -16;
},
{
over = -16;
pos = -200;
},
{
over = -16;
}
);
name = Regular;
}
);
glyphs = (
{
glyphname = A;
lastChange = "2023-09-30 10:44:37 +0000";
layers = (
{
anchors = (
{
name = bottom;
pos = (209,0);
},
{
name = ogonek;
pos = (375,10);
},
{
name = top;
pos = (209,700);
}
);
layerId = m01;
shapes = (
{
closed = 1;
nodes = (
(50,0,l),
(80,0,l),
(80,700,l),
(50,700,l)
);
},
{
closed = 1;
nodes = (
(80,700,l),
(53,687,l),
(390,17,l),
(417,30,l)
);
},
{
closed = 1;
nodes = (
(52,0,l),
(417,0,l),
(417,30,l),
(52,30,l)
);
},
{
closed = 1;
nodes = (
(52,354,l),
(227,354,l),
(227,384,l),
(52,384,l)
);
}
);
width = 417;
}
);
unicode = 65;
},
{
glyphname = B;
lastChange = "2023-09-30 10:44:37 +0000";
layers = (
{
anchors = (
{
name = bottom;
pos = (227,0);
},
{
name = center;
pos = (227,350);
},
{
name = top;
pos = (227,700);
}
);
layerId = m01;
shapes = (
{
closed = 1;
nodes = (
(50,700,l),
(50,-1,l),
(52,-1,l),
(80,-1,l),
(418,-1,l),
(418,29,l),
(416,29,l),
(417,30,l),
(81,368,l),
(354,670,l),
(355,670,l),
(355,700,l)
);
},
{
closed = 1;
nodes = (
(80,670,l),
(314,670,l),
(80,412,l)
);
},
{
closed = 1;
nodes = (
(80,326,l),
(376,29,l),
(80,29,l)
);
},
{
closed = 1;
nodes = (
(146,145,o),
(135,134,o),
(135,120,c),
(135,105,o),
(146,94,o),
(161,94,c),
(175,94,o),
(186,105,o),
(186,120,c),
(186,134,o),
(175,145,o),
(161,145,c)
);
},
{
closed = 1;
nodes = (
(175,579,o),
(186,590,o),
(186,605,c),
(186,619,o),
(175,630,o),
(161,630,c),
(146,630,o),
(135,619,o),
(135,605,c),
(135,590,o),
(146,579,o),
(161,579,c)
);
}
);
width = 453;
}
);
unicode = 66;
},
{
glyphname = C;
lastChange = "2023-09-30 10:44:37 +0000";
layers = (
{
anchors = (
{
name = bottom;
pos = (229,0);
},
{
name = top;
pos = (229,700);
}
);
layerId = m01;
shapes = (
{
closed = 1;
nodes = (
(50,0,l),
(80,0,l),
(80,700,l),
(50,700,l)
);
},
{
closed = 1;
nodes = (
(66,27,l),
(80,0,l),
(392,176,l),
(378,203,l)
);
},
{
closed = 1;
nodes = (
(80,700,l),
(66,674,l),
(378,502,l),
(392,528,l)
);
},
{
closed = 1;
nodes = (
(378,502,l),
(408,502,l),
(408,700,l),
(378,700,l)
);
},
{
closed = 1;
nodes = (
(378,0,l),
(408,0,l),
(408,203,l),
(378,203,l)
);
}
);
width = 458;
}
);
unicode = 67;
},
{
glyphname = D;
lastChange = "2023-09-30 10:44:37 +0000";
layers = (
{
anchors = (
{
name = bottom;
pos = (226,0);
},
{
name = center;
pos = (226,350);
},
{
name = top;
pos = (226,700);
}
);
layerId = m01;
shapes = (
{
closed = 1;
nodes = (
(69,-1,l),
(99,-1,l),
(99,700,l),
(69,700,l)
);
},
{
closed = 1;
nodes = (
(99,700,l),
(78,679,l),
(430,340,l),
(451,361,l)
);
},
{
closed = 1;
nodes = (
(78,20,l),
(99,-1,l),
(443,354,l),
(422,375,l)
);
},
{
closed = 1;
nodes = (
(0,350,l),
(169,350,l),
(169,380,l),
(0,380,l)
);
},
{
closed = 1;
nodes = (
(302,351,o),
(291,340,o),
(277,340,c),
(262,340,o),
(251,351,o),
(251,365,c),
(251,379,o),
(262,391,o),
(277,391,c),
(291,391,o),
(302,379,o),
(302,365,c)
);
}
);
width = 451;
}
);
unicode = 68;
},
{
glyphname = E;
lastChange = "2023-09-30 10:44:37 +0000";
layers = (
{
anchors = (
{
name = bottom;
pos = (206,0);
},
{
name = ogonek;
pos = (370,10);
},
{
name = top;
pos = (206,700);
},
{
name = topleft;
pos = (20,700);
}
);
layerId = m01;
shapes = (
{
closed = 1;
nodes = (
(35,670,l),
(355,340,l),
(376,361,l),
(48,691,l)
);
},
{
closed = 1;
nodes = (
(35,29,l),
(56,8,l),
(368,354,l),
(347,375,l)
);
},
{
closed = 1;
nodes = (
(35,670,l),
(376,670,l),
(376,700,l),
(35,700,l)
);
},
{
closed = 1;
nodes = (
(35,-1,l),
(376,-1,l),
(376,29,l),
(35,29,l)
);
},
{
closed = 1;
nodes = (
(87,351,o),
(76,340,o),
(62,340,c),
(47,340,o),
(36,351,o),
(36,365,c),
(36,379,o),
(47,391,o),
(62,391,c),
(76,391,o),
(87,379,o),
(87,365,c)
);
}
);
width = 411;
}
);
unicode = 69;
},
{
glyphname = F;
lastChange = "2023-09-30 10:46:47 +0000";
layers = (
{
anchors = (
{
name = bottom;
pos = (245,0);
},
{
name = top;
pos = (245,700);
}
);
layerId = m01;
shapes = (
{
closed = 1;
nodes = (
(138,700,l),
(138,29,l),
(35,29,l),
(35,-1,l),
(138,-1,l),
(168,-1,l),
(335,-1,l),
(335,29,l),
(168,29,l),
(168,350,l),
(313,350,l),
(313,380,l),
(168,380,l),
(168,670,l),
(267,670,l),
(424,546,l),
(454,545,l),
(454,700,l)
);
},
{
closed = 1;
nodes = (
(315,670,l),
(424,670,l),
(424,584,l)
);
},
{
closed = 1;
nodes = (
(88,340,o),
(99,351,o),
(99,365,c),
(99,379,o),
(88,391,o),
(74,391,c),
(59,391,o),
(48,379,o),
(48,365,c),
(48,351,o),
(59,340,o),
(74,340,c)
);
}
);
width = 489;
}
);
unicode = 70;
},
{
glyphname = G;
lastChange = "2023-09-30 10:44:37 +0000";
layers = (
{
anchors = (
{
name = bottom;
pos = (235,0);
},
{
name = top;
pos = (235,700);
}
);
layerId = m01;
shapes = (
{
closed = 1;
nodes = (
(50,700,l),
(50,-1,l),
(51,-1,l),
(80,-1,l),
(389,-1,l),
(417,-1,l),
(419,-1,l),
(419,261,l),
(417,261,l),
(389,261,l),
(232,261,l),
(232,231,l),
(389,107,l),
(389,29,l),
(80,29,l),
(80,670,l),
(389,670,l),
(389,561,l),
(419,561,l),
(419,700,l)
);
},
{
closed = 1;
nodes = (
(281,231,l),
(389,231,l),
(389,146,l)
);
},
{
closed = 1;
nodes = (
(225,411,o),
(236,400,o),
(251,400,c),
(265,400,o),
(276,411,o),
(276,426,c),
(276,440,o),
(265,451,o),
(251,451,c),
(236,451,o),
(225,440,o),
(225,426,c)
);
}
);
width = 469;
}
);
unicode = 71;
},
{
glyphname = H;
lastChange = "2023-09-30 10:44:37 +0000";
layers = (
{
anchors = (
{
name = bottom;
pos = (230,0);
},
{
name = center;
pos = (230,350);
},
{
name = top;
pos = (230,700);
},
{
name = topleft;
pos = (20,700);
}
);
layerId = m01;
shapes = (
{
closed = 1;
nodes = (
(379,700,l),
(379,364,l),
(80,364,l),
(80,700,l),
(50,700,l),
(50,-1,l),
(80,-1,l),
(80,334,l),
(379,334,l),
(379,-1,l),
(409,-1,l),
(409,700,l)
);
},
{
closed = 1;
nodes = (
(242,505,o),
(253,516,o),
(253,531,c),
(253,545,o),
(242,556,o),
(228,556,c),
(213,556,o),
(202,545,o),
(202,531,c),
(202,516,o),
(213,505,o),
(228,505,c)
);
},
{
closed = 1;
nodes = (
(213,196,o),
(202,185,o),
(202,171,c),
(202,156,o),
(213,145,o),
(228,145,c),
(242,145,o),
(253,156,o),
(253,171,c),
(253,185,o),
(242,196,o),
(228,196,c)
);
}
);
width = 459;
}
);
unicode = 72;
},
{
glyphname = I;
lastChange = "2023-09-30 10:44:37 +0000";
layers = (
{
anchors = (
{
name = bottom;
pos = (241,0);
},
{
name = ogonek;
pos = (433,10);
},
{
name = top;
pos = (241,700);
},
{
name = topleft;
pos = (20,700);
}
);
layerId = m01;
shapes = (
{
closed = 1;
nodes = (
(60,700,l),
(60,670,l),
(60,545,l),
(90,545,l),
(90,670,l),
(223,670,l),
(223,29,l),
(90,29,l),
(90,154,l),
(60,154,l),
(60,29,l),
(60,-1,l),
(420,-1,l),
(420,154,l),
(390,154,l),
(390,29,l),
(253,29,l),
(253,670,l),
(390,670,l),
(390,545,l),
(420,545,l),
(420,700,l)
);
},
{
closed = 1;
nodes = (
(391,375,o),
(380,363,o),
(380,349,c),
(380,335,o),
(391,324,o),
(405,324,c),
(419,324,o),
(431,335,o),
(431,349,c),
(431,363,o),
(419,375,o),
(405,375,c)
);
},
{
closed = 1;
nodes = (
(101,363,o),
(89,375,o),
(75,375,c),
(61,375,o),
(50,363,o),
(50,349,c),
(50,335,o),
(61,324,o),
(75,324,c),
(89,324,o),
(101,335,o),
(101,349,c)
);
}
);
width = 481;
}
);
unicode = 73;
},
{
glyphname = J;
lastChange = "2023-09-30 10:44:37 +0000";
layers = (
{
anchors = (
{
name = bottom;
pos = (232,0);
},
{
name = top;
pos = (232,700);
}
);
layerId = m01;
shapes = (
{
closed = 1;
nodes = (
(51,700,l),
(51,670,l),
(384,670,l),
(384,60,l),
(80,360,l),
(50,360,l),
(50,-1,l),
(51,-1,l),
(414,-2,l),
(414,700,l)
);
},
{
closed = 1;
nodes = (
(80,318,l),
(373,29,l),
(80,29,l)
);
},
{
closed = 1;
nodes = (
(278,379,o),
(267,391,o),
(253,391,c),
(238,391,o),
(227,379,o),
(227,365,c),
(227,351,o),
(238,340,o),
(253,340,c),
(267,340,o),
(278,351,o),
(278,365,c)
);
}
);
width = 464;
}
);
unicode = 74;
},
{
glyphname = K;
lastChange = "2023-09-30 10:44:37 +0000";
layers = (
{
anchors = (
{
name = bottom;
pos = (227,0);
},
{
name = top;
pos = (227,700);
}
);
layerId = m01;
shapes = (
{
closed = 1;
nodes = (
(374,699,l),
(80,391,l),
(80,699,l),
(50,699,l),
(50,-1,l),
(80,-1,l),
(80,306,l),
(374,-1,l),
(404,-1,l),
(404,699,l)
);
},
{
closed = 1;
nodes = (
(81,348,l),
(374,654,l),
(374,43,l)
);
},
{
closed = 1;
nodes = (
(236,375,o),
(225,363,o),
(225,349,c),
(225,335,o),
(236,324,o),
(251,324,c),
(265,324,o),
(276,335,o),
(276,349,c),
(276,363,o),
(265,375,o),
(251,375,c)
);
}
);
width = 454;
}
);
unicode = 75;
},
{
glyphname = L;
lastChange = "2023-09-30 10:44:37 +0000";
layers = (
{
anchors = (
{
name = bottom;
pos = (233,0);
},
{
name = center;
pos = (233,350);
},
{
name = top;
pos = (233,700);
},
{
name = topright;
pos = (446,700);
}
);
layerId = m01;
shapes = (
{
closed = 1;
nodes = (
(265,324,o),
(276,335,o),
(276,349,c),
(276,363,o),
(265,375,o),
(251,375,c),
(236,375,o),
(225,363,o),
(225,349,c),
(225,335,o),
(236,324,o),
(251,324,c)
);
},
{
closed = 1;
nodes = (
(401,148,l),
(401,29,l),
(254,29,l)
);
},
{
closed = 1;
nodes = (
(431,187,l),
(401,187,l),
(206,29,l),
(80,29,l),
(80,700,l),
(50,700,l),
(50,0,l),
(431,0,l)
);
}
);
width = 466;
}
);
unicode = 76;
},
{
glyphname = M;
lastChange = "2023-09-30 10:44:37 +0000";
layers = (
{
anchors = (
{
name = bottom;
pos = (316,0);
},
{
name = top;
pos = (316,700);
}
);
layerId = m01;
shapes = (
{
closed = 1;
nodes = (
(551,700,l),
(316,359,l),
(80,700,l),
(50,700,l),
(50,0,l),
(219,0,l),
(219,30,l),
(80,30,l),
(80,647,l),
(297,333,l),
(221,222,l),
(221,193,l),
(410,193,l),
(410,222,l),
(334,333,l),
(552,649,l),
(552,30,l),
(413,30,l),
(413,0,l),
(582,0,l),
(582,700,l)
);
},
{
closed = 1;
nodes = (
(316,306,l),
(373,223,l),
(258,223,l)
);
},
{
closed = 1;
nodes = (
(330,533,o),
(341,544,o),
(341,558,c),
(341,573,o),
(330,584,o),
(316,584,c),
(301,584,o),
(290,573,o),
(290,558,c),
(290,544,o),
(301,533,o),
(316,533,c)
);
}
);
width = 632;
}
);
unicode = 77;
},
{
glyphname = N;
lastChange = "2023-09-30 10:44:37 +0000";
layers = (
{
anchors = (
{
name = bottom;
pos = (235,0);
},
{
name = top;
pos = (235,700);
}
);
layerId = m01;
shapes = (
{
closed = 1;
nodes = (
(390,700,l),
(390,29,l),
(250,29,l),
(250,700,l),
(50,700,l),
(50,0,l),
(80,0,l),
(80,670,l),
(220,670,l),
(220,0,l),
(420,0,l),
(420,700,l)
);
}
);
width = 470;
}
);
unicode = 78;
},
{
glyphname = O;
lastChange = "2023-09-30 10:44:37 +0000";
layers = (
{
anchors = (
{
name = bottom;
pos = (238,0);
},
{
name = center;
pos = (238,350);
},
{
name = ogonek;
pos = (428,10);
},
{
name = top;
pos = (238,700);
},
{
name = topleft;
pos = (20,700);
},
{
name = topright;
pos = (455,700);
}
);
layerId = m01;
shapes = (
{
closed = 1;
nodes = (
(50,0,l),
(425,0,l),
(425,700,l),
(50,700,l)
);
},
{
closed = 1;
nodes = (
(80,668,l),
(395,668,l),
(395,30,l),
(80,30,l)
);
},
{
closed = 1;
nodes = (
(209,364,o),
(220,376,o),
(235,376,cs),
(249,376,o),
(260,364,o),
(260,350,cs),
(260,336,o),
(249,325,o),
(235,325,cs),
(220,325,o),
(209,336,o),
(209,350,cs)
);
}
);
width = 475;
}
);
unicode = 79;
},
{
glyphname = P;
lastChange = "2023-09-30 10:44:37 +0000";
layers = (
{
anchors = (
{
name = bottom;
pos = (247,0);
},
{
name = top;
pos = (247,700);
}
);
layerId = m01;
shapes = (
{
closed = 1;
nodes = (
(53,700,l),
(53,668,l),
(413,668,l),
(413,380,l),
(50,380,l),
(50,-1,l),
(264,-1,l),
(264,29,l),
(80,29,l),
(80,350,l),
(443,350,l),
(443,700,l)
);
},
{
closed = 1;
nodes = (
(263,539,o),
(252,550,o),
(238,550,c),
(223,550,o),
(212,539,o),
(212,525,c),
(212,510,o),
(223,499,o),
(238,499,c),
(252,499,o),
(263,510,o),
(263,525,c)
);
}
);
width = 493;
}
);
unicode = 80;
},
{
glyphname = Q;
lastChange = "2023-09-30 10:44:37 +0000";
layers = (
{
anchors = (
{
name = bottom;
pos = (238,0);
},
{
name = top;
pos = (238,700);
}
);
layerId = m01;
shapes = (
{
closed = 1;
nodes = (
(50,0,l),
(425,0,l),
(425,700,l),
(50,700,l)
);
},
{
closed = 1;
nodes = (
(80,668,l),
(395,668,l),
(395,30,l),
(80,30,l)
);
},
{
closed = 1;
nodes = (
(209,364,o),
(220,376,o),
(235,376,cs),
(249,376,o),
(260,364,o),
(260,350,cs),
(260,336,o),
(249,325,o),
(235,325,cs),
(220,325,o),
(209,336,o),
(209,350,cs)
);
},
{
closed = 1;
nodes = (
(217,218,l),
(217,188,l),
(476,-71,l),
(497,-50,l),
(260,188,l),
(398,188,l),
(398,218,l)
);
}
);
width = 475;
}
);
unicode = 81;
},
{
glyphname = R;
lastChange = "2023-09-30 10:44:37 +0000";
layers = (
{
anchors = (
{
name = bottom;
pos = (229,0);
},
{
name = top;
pos = (229,700);
}
);
layerId = m01;
shapes = (
{
closed = 1;
nodes = (
(50,700,l),
(50,0,l),
(80,0,l),
(80,342,l),
(378,342,l),
(378,0,l),
(408,0,l),
(408,372,l),
(119,372,l),
(408,670,l),
(408,700,l)
);
},
{
closed = 1;
nodes = (
(80,670,l),
(366,670,l),
(80,375,l)
);
},
{
closed = 1;
nodes = (
(216,214,o),
(205,203,o),
(205,188,c),
(205,174,o),
(216,163,o),
(230,163,c),
(244,163,o),
(256,174,o),
(256,188,c),
(256,203,o),
(244,214,o),
(230,214,c)
);
}
);
width = 458;
}
);
unicode = 82;
},
{
glyphname = S;
lastChange = "2023-09-30 10:44:37 +0000";
layers = (
{
anchors = (
{
name = bottom;
pos = (230,0);
},
{
name = top;
pos = (230,700);
}
);
layerId = m01;
shapes = (
{
closed = 1;
nodes = (
(50,700,l),
(50,351,l),
(210,351,l),
(210,205,l),
(50,205,l),
(50,0,l),
(410,0,l),
(410,381,l),
(240,381,l),
(240,526,l),
(410,526,l),
(410,700,l)
);
},
{
closed = 1;
nodes = (
(80,670,l),
(380,670,l),
(380,556,l),
(210,556,l),
(210,381,l),
(80,381,l)
);
},
{
closed = 1;
nodes = (
(80,175,l),
(240,175,l),
(240,351,l),
(380,351,l),
(380,30,l),
(80,30,l)
);
}
);
width = 460;
}
);
unicode = 83;
},
{
glyphname = T;
lastChange = "2023-09-30 10:44:37 +0000";
layers = (
{
anchors = (
{
name = bottom;
pos = (241,0);
},
{
name = center;
pos = (241,350);
},
{
name = top;
pos = (241,700);
}
);
layerId = m01;
shapes = (
{
closed = 1;
nodes = (
(60,700,l),
(60,670,l),
(60,545,l),
(90,545,l),
(90,670,l),
(223,670,l),
(223,30,l),
(60,30,l),
(60,0,l),
(416,0,l),
(416,30,l),
(253,30,l),
(253,670,l),
(390,670,l),
(390,545,l),
(420,545,l),
(420,700,l)
);
},
{
closed = 1;
nodes = (
(391,375,o),
(380,364,o),
(380,350,c),
(380,336,o),
(391,324,o),
(405,324,c),
(419,324,o),
(431,336,o),
(431,350,c),
(431,364,o),
(419,375,o),
(405,375,c)
);
},
{
closed = 1;
nodes = (
(101,364,o),
(89,375,o),
(75,375,c),
(61,375,o),
(50,364,o),
(50,350,c),
(50,336,o),
(61,324,o),
(75,324,c),
(89,324,o),
(101,336,o),
(101,350,c)
);
}
);
width = 481;
}
);
unicode = 84;
},
{
glyphname = U;
lastChange = "2023-09-30 10:44:37 +0000";
layers = (
{
anchors = (
{
name = bottom;
pos = (230,0);
},
{
name = ogonek;
pos = (413,10);
},
{
name = top;
pos = (230,700);
},
{
name = topright;
pos = (439,700);
}
);
layerId = m01;
shapes = (
{
closed = 1;
nodes = (
(50,0,l),
(80,0,l),
(80,700,l),
(50,700,l)
);
},
{
closed = 1;
nodes = (
(379,0,l),
(409,0,l),
(409,700,l),
(379,700,l)
);
},
{
closed = 1;
nodes = (
(71,335,l),
(384,335,l),
(384,365,l),
(71,365,l)
);
},
{
closed = 1;
nodes = (
(51,0,l),
(404,0,l),
(404,30,l),
(51,30,l)
);
},
{
closed = 1;
nodes = (
(253,517,o),
(242,506,o),
(228,506,c),
(213,506,o),
(202,517,o),
(202,532,c),
(202,546,o),
(213,557,o),
(228,557,c),
(242,557,o),
(253,546,o),
(253,532,c)
);
},
{
closed = 1;
nodes = (
(253,157,o),
(242,146,o),
(228,146,c),
(213,146,o),
(202,157,o),
(202,172,c),
(202,186,o),
(213,197,o),
(228,197,c),
(242,197,o),
(253,186,o),
(253,172,c)
);
}
);
width = 459;
}
);
unicode = 85;
},
{
glyphname = V;
lastChange = "2023-09-30 10:44:37 +0000";
layers = (
{
anchors = (
{
name = bottom;
pos = (230,0);
},
{
name = top;
pos = (230,700);
}
);
layerId = m01;
shapes = (
{
closed = 1;
nodes = (
(380,700,l),
(380,325,l),
(305,177,l),
(153,177,l),
(80,325,l),
(80,700,l),
(50,700,l),
(50,318,l),
(209,0,l),
(249,0,l),
(410,318,l),
(410,700,l)
);
},
{
closed = 1;
nodes = (
(168,147,l),
(290,147,l),
(228,25,l)
);
},
{
closed = 1;
nodes = (
(241,311,o),
(252,322,o),
(252,336,c),
(252,351,o),
(241,362,o),
(227,362,c),
(212,362,o),
(201,351,o),
(201,336,c),
(201,322,o),
(212,311,o),
(227,311,c)
);
}
);
width = 460;
}
);
unicode = 86;
},
{
glyphname = W;
lastChange = "2023-09-30 10:44:37 +0000";
layers = (
{
anchors = (
{
name = bottom;
pos = (316,0);
},
{
name = top;
pos = (316,700);
}
);
layerId = m01;
shapes = (
{
closed = 1;
nodes = (
(552,700,l),
(552,53,l),
(335,367,l),
(411,478,l),
(411,507,l),
(222,507,l),
(222,478,l),
(298,367,l),
(80,51,l),
(80,700,l),
(50,700,l),
(50,0,l),
(80,1,l),
(316,341,l),
(552,0,l),
(582,0,l),
(582,700,l)
);
},
{
closed = 1;
nodes = (
(259,477,l),
(374,477,l),
(316,394,l)
);
},
{
closed = 1;
nodes = (
(302,167,o),
(291,156,o),
(291,142,c),
(291,127,o),
(302,116,o),
(317,116,c),
(331,116,o),
(342,127,o),
(342,142,c),
(342,156,o),
(331,167,o),
(317,167,c)
);
}
);
width = 632;
}
);
unicode = 87;
},
{
glyphname = X;
lastChange = "2023-09-30 10:44:37 +0000";
layers = (
{
anchors = (
{
name = bottom;
pos = (240,0);
},
{
name = top;
pos = (240,700);
}
);
layerId = m01;
shapes = (
{
closed = 1;
nodes = (
(399,700,l),
(399,555,l),
(240,390,l),
(80,555,l),
(80,700,l),
(50,700,l),
(50,543,l),
(219,369,l),
(50,194,l),
(50,0,l),
(80,0,l),
(80,182,l),
(240,347,l),
(399,182,l),
(399,0,l),
(429,0,l),
(429,194,l),
(260,369,l),
(429,543,l),
(429,700,l)
);
},
{
closed = 1;
nodes = (
(234,208,o),
(223,197,o),
(223,182,c),
(223,168,o),
(234,157,o),
(249,157,c),
(263,157,o),
(274,168,o),
(274,182,c),
(274,197,o),
(263,208,o),
(249,208,c)
);
},
{
closed = 1;
nodes = (
(263,533,o),
(274,544,o),
(274,558,c),
(274,573,o),
(263,584,o),
(249,584,c),
(234,584,o),
(223,573,o),
(223,558,c),
(223,544,o),
(234,533,o),
(249,533,c)
);
}
);
width = 479;
}
);
unicode = 88;
},
{
glyphname = Y;
lastChange = "2023-09-30 10:44:37 +0000";
layers = (
{
anchors = (
{
name = bottom;
pos = (240,0);
},
{
name = top;
pos = (240,700);
},
{
name = topleft;
pos = (20,700);
}
);
layerId = m01;
shapes = (
{
closed = 1;
nodes = (
(263,533,o),
(274,544,o),
(274,558,c),
(274,573,o),
(263,584,o),
(249,584,c),
(234,584,o),
(223,573,o),
(223,558,c),
(223,544,o),
(234,533,o),
(249,533,c)
);
},
{
closed = 1;
nodes = (
(252,366,l),
(429,543,l),
(429,700,l),
(399,700,l),
(399,556,l),
(238,394,l),
(80,555,l),
(80,700,l),
(50,700,l),
(50,543,l),
(222,368,l),
(222,30,l),
(89,30,l),
(89,155,l),
(59,155,l),
(59,0,l),
(415,0,l),
(419,0,l),
(419,155,l),
(389,155,l),
(389,30,l),
(252,30,l)
);
}
);
width = 479;
}
);
unicode = 89;
},
{
glyphname = Z;
lastChange = "2023-09-30 10:44:37 +0000";
layers = (
{
anchors = (
{
name = bottom;
pos = (232,0);
},
{
name = center;
pos = (232,350);
},
{
name = top;
pos = (232,700);
}
);
layerId = m01;
shapes = (
{
closed = 1;
nodes = (
(50,700,l),
(50,372,l),
(80,372,l),
(236,670,l),
(380,670,l),
(52,30,l),
(52,0,l),
(414,0,l),
(414,373,l),
(384,373,l),
(220,30,l),
(86,30,l),
(414,670,l),
(414,700,l)
);
},
{
closed = 1;
nodes = (
(80,670,l),
(203,670,l),
(80,437,l)
);
},
{
closed = 1;
nodes = (
(384,303,l),
(384,30,l),
(253,30,l)
);
}
);
width = 464;
}
);
unicode = 90;
},
{
glyphname = a;
lastChange = "2023-09-30 11:36:33 +0000";
layers = (
{
anchors = (
{
name = bottom;
pos = (255,0);
},
{
name = ogonek;
pos = (466,10);
},
{
name = top;
pos = (255,500);
}
);
layerId = m01;
shapes = (
{
closed = 1;
nodes = (
(104,500,l),
(104,470,l),
(439,470,l),
(439,417,l),
(25,29,l),
(25,-1,l),
(469,-1,l),
(469,500,l)
);
},
{
closed = 1;
nodes = (
(439,374,l),
(439,29,l),
(70,29,l)
);
},
{
closed = 1;
nodes = (
(310,159,o),
(299,148,o),
(299,134,c),
(299,119,o),
(310,108,o),
(325,108,c),
(339,108,o),
(350,119,o),
(350,134,c),
(350,148,o),
(339,159,o),
(325,159,c)
);
}
);
width = 519;
}
);
unicode = 97;
},
{
glyphname = b;
lastChange = "2023-09-30 10:44:37 +0000";
layers = (
{
anchors = (
{
name = bottom;
pos = (225,0);
},
{
name = center;
pos = (225,250);
},
{
name = top;
pos = (225,500);
}
);
layerId = m01;
shapes = (
{
closed = 1;
nodes = (
(51,-1,l),
(81,-1,l),
(81,699,l),
(51,699,l)
);
},
{
closed = 1;
nodes = (
(370,-1,l),
(400,-1,l),
(400,498,l),
(370,498,l)
);
},
{
closed = 1;
nodes = (
(50,-1,l),
(377,-1,l),
(377,29,l),
(50,29,l)
);
},
{
closed = 1;
nodes = (
(54,468,l),
(394,468,l),
(394,498,l),
(54,498,l)
);
},
{
closed = 1;
nodes = (
(250,234,o),
(238,223,o),
(224,223,c),
(210,223,o),
(199,234,o),
(199,249,c),
(199,263,o),
(210,274,o),
(224,274,c),
(238,274,o),
(250,263,o),
(250,249,c)
);
}
);
width = 450;
}
);
unicode = 98;
},
{
glyphname = c;
lastChange = "2023-09-30 10:44:37 +0000";
layers = (
{
anchors = (
{
name = bottom;
pos = (227,0);
},
{
name = top;
pos = (227,500);
}
);
layerId = m01;
shapes = (
{
closed = 1;
nodes = (
(51,498,l),
(51,29,l),
(50,29,l),
(50,-1,l),
(51,-1,l),
(404,-1,l),
(404,29,l),
(81,29,l),
(81,468,l),
(403,468,l),
(403,498,l)
);
},
{
closed = 1;
nodes = (
(203,234,o),
(214,223,o),
(229,223,c),
(243,223,o),
(254,234,o),
(254,249,c),
(254,263,o),
(243,274,o),
(229,274,c),
(214,274,o),
(203,263,o),
(203,249,c)
);
}
);
width = 454;
}
);
unicode = 99;
},
{
glyphname = d;
lastChange = "2023-09-30 10:44:37 +0000";
layers = (
{
anchors = (
{
name = bottom;
pos = (225,0);
},
{
name = center;
pos = (225,250);
},
{
name = top;
pos = (225,800);
},
{
name = topright;
pos = (430,800);
}
);
layerId = m01;
shapes = (
{
closed = 1;
nodes = (
(369,699,l),
(369,-1,l),
(399,-1,l),
(399,699,l)
);
},
{
closed = 1;
nodes = (
(50,498,l),
(50,-1,l),
(80,-1,l),
(80,498,l)
);
},
{
closed = 1;
nodes = (
(73,29,l),
(73,-1,l),
(400,-1,l),
(400,29,l)
);
},
{
closed = 1;
nodes = (
(56,498,l),
(56,468,l),
(396,468,l),
(396,498,l)
);
},
{
closed = 1;
nodes = (
(200,263,o),
(212,274,o),
(226,274,c),
(240,274,o),
(251,263,o),
(251,249,c),
(251,234,o),
(240,223,o),
(226,223,c),
(212,223,o),
(200,234,o),
(200,249,c)
);
}
);
width = 450;
}
);
unicode = 100;
},
{
glyphname = e;
lastChange = "2023-09-30 10:44:37 +0000";
layers = (
{
anchors = (
{
name = bottom;
pos = (258,0);
},
{
name = ogonek;
pos = (464,10);
},
{
name = top;
pos = (258,500);
}
);
layerId = m01;
shapes = (
{
closed = 1;
nodes = (
(50,500,l),
(50,0,l),
(451,0,l),
(451,30,l),
(80,30,l),
(80,469,l),
(435,219,l),
(465,219,l),
(465,500,l)
);
},
{
closed = 1;
nodes = (
(131,470,l),
(435,470,l),
(435,256,l)
);
},
{
closed = 1;
nodes = (
(198,174,o),
(209,163,o),
(224,163,c),
(238,163,o),
(249,174,o),
(249,189,c),
(249,203,o),
(238,214,o),
(224,214,c),
(209,214,o),
(198,203,o),
(198,189,c)
);
}
);
width = 515;
}
);
unicode = 101;
},
{
glyphname = f;
lastChange = "2023-09-30 11:36:44 +0000";
layers = (
{
anchors = (
{
name = bottom;
pos = (271,0);
},
{
name = top;
pos = (271,800);
}
);
layerId = m01;
shapes = (
{
closed = 1;
nodes = (
(164,700,l),
(164,498,l),
(25,498,l),
(25,468,l),
(164,468,l),
(164,29,l),
(25,29,l),
(25,-1,l),
(334,-1,l),
(334,29,l),
(194,29,l),
(194,468,l),
(334,468,l),
(334,498,l),
(194,498,l),
(194,666,l),
(347,546,l),
(347,545,l),
(377,545,l),
(377,700,l)
);
},
{
closed = 1;
nodes = (
(238,670,l),
(347,670,l),
(347,584,l)
);
}
);
width = 402;
}
);
unicode = 102;
},
{
glyphname = g;
lastChange = "2023-09-30 10:52:06 +0000";
layers = (
{
layerId = m01;
shapes = (
{
closed = 1;
nodes = (
(50,500,l),
(50,22,l),
(80,22,l),
(387,355,l),
(387,-143,l),
(50,-143,l),
(50,-173,l),
(417,-173,l),
(417,500,l)
);
},
{
closed = 1;
nodes = (
(80,470,l),
(387,470,l),
(387,401,l),
(80,68,l)
);
},
{
closed = 1;
nodes = (
(224,329,o),
(235,341,o),
(235,355,c),
(235,369,o),
(224,380,o),
(210,380,c),
(196,380,o),
(184,369,o),
(184,355,c),
(184,341,o),
(196,329,o),
(210,329,c)
);
}
);
width = 467;
}
);
unicode = 103;
},
{
glyphname = h;
lastChange = "2023-09-30 10:54:44 +0000";
layers = (
{
anchors = (
{
name = bottom;
pos = (329,0);
},
{
name = center;
pos = (329,400);
},
{
name = top;
pos = (329,800);
}
);
layerId = m01;
shapes = (
{
closed = 1;
nodes = (
(50,700,l),
(50,0,l),
(80,0,l),
(426,460,l),
(426,0,l),
(456,0,l),
(456,500,l),
(80,500,l),
(80,700,l)
);
},
{
closed = 1;
nodes = (
(80,470,l),
(395,470,l),
(80,56,l)
);
}
);
width = 506;
}
);
unicode = 104;
},
{
glyphname = i;
lastChange = "2023-09-30 10:55:52 +0000";
layers = (
{
anchors = (
{
name = bottom;
pos = (217,0);
}
);
layerId = m01;
shapes = (
{
closed = 1;
nodes = (
(25,500,l),
(25,470,l),
(188,470,l),
(188,29,l),
(25,29,l),
(25,-1,l),
(381,-1,l),
(381,29,l),
(218,29,l),
(218,470,l),
(374,470,l),
(374,500,l)
);
},
{
closed = 1;
nodes = (
(75,588,l),
(323,588,l),
(323,618,l),
(75,618,l)
);
}
);
width = 406;
}
);
unicode = 105;
},
{
glyphname = j;
lastChange = "2023-09-30 10:59:26 +0000";
layers = (
{
layerId = m01;
shapes = (
{
closed = 1;
nodes = (
(283,586,o),
(294,597,o),
(294,612,c),
(294,626,o),
(283,637,o),
(269,637,c),
(254,637,o),
(243,626,o),
(243,612,c),
(243,597,o),
(254,586,o),
(269,586,c)
);
},
{
closed = 1;
nodes = (
(55,-40,l),
(178,-137,l),
(55,-137,l)
);
},
{
closed = 1;
nodes = (
(119,468,l),
(261,468,l),
(261,-137,l),
(227,-137,l),
(55,-1,l),
(25,-1,l),
(25,-167,l),
(291,-167,l),
(291,498,l),
(119,498,l)
);
}
);
width = 344;
}
);
unicode = 106;
},
{
glyphname = k;
lastChange = "2023-09-30 11:36:28 +0000";
layers = (
{
anchors = (
{
name = bottom;
pos = (232,0);
},
{
name = top;
pos = (232,800);
}
);
layerId = m01;
shapes = (
{
closed = 1;
nodes = (
(159,191,o),
(148,179,o),
(148,165,c),
(148,151,o),
(159,140,o),
(173,140,c),
(187,140,o),
(199,151,o),
(199,165,c),
(199,179,o),
(187,191,o),
(173,191,c)
);
},
{
closed = 1;
nodes = (
(80,470,l),
(239,470,l),
(80,299,l)
);
},
{
closed = 1;
nodes = (
(172,353,l),
(280,470,l),
(280,500,l),
(80,500,l),
(80,699,l),
(50,699,l),
(50,-1,l),
(80,-1,l),
(80,256,l),
(151,331,l),
(407,-1,l),
(444,-1,l)
);
}
);
width = 469;
}
);
unicode = 107;
},
{
glyphname = l;
lastChange = "2023-09-30 11:04:00 +0000";
layers = (
{
anchors = (
{
name = bottom;
pos = (280,0);
},
{
name = center;
pos = (280,400);
},
{
name = top;
pos = (280,800);
},
{
name = topright;
pos = (490,800);
}
);
layerId = m01;
shapes = (
{
closed = 1;
nodes = (
(50,700,l),
(50,0,l),
(316,0,l),
(316,166,l),
(286,166,l),
(114,30,l),
(80,30,l),
(80,700,l)
);
},
{
closed = 1;
nodes = (
(286,127,l),
(286,30,l),
(163,30,l)
);
}
);
width = 341;
}
);
unicode = 108;
},
{
glyphname = m;
lastChange = "2023-09-30 11:08:23 +0000";
layers = (
{
anchors = (
{
name = bottom;
pos = (391,0);
},
{
name = top;
pos = (391,500);
}
);
layerId = m01;
shapes = (
{
closed = 1;
nodes = (
(50,498,l),
(50,-1,l),
(80,-1,l),
(387,458,l),
(387,-1,l),
(417,-1,l),
(417,467,l),
(702,467,l),
(702,-2,l),
(732,-2,l),
(732,498,l)
);
},
{
closed = 1;
nodes = (
(80,468,l),
(356,468,l),
(80,56,l)
);
}
);
width = 782;
}
);
unicode = 109;
},
{
glyphname = n;
lastChange = "2023-09-30 11:09:09 +0000";
layers = (
{
anchors = (
{
name = bottom;
pos = (299,0);
},
{
name = top;
pos = (299,500);
}
);
layerId = m01;
shapes = (
{
closed = 1;
nodes = (
(50,500,l),
(50,-1,l),
(80,-1,l),
(387,460,l),
(387,-1,l),
(417,-1,l),
(417,500,l)
);
},
{
closed = 1;
nodes = (
(80,470,l),
(356,470,l),
(80,56,l)
);
}
);
width = 467;
}
);
unicode = 110;
},
{
glyphname = o;
lastChange = "2023-09-30 11:09:53 +0000";
layers = (
{
anchors = (
{
name = bottom;
pos = (317,0);
},
{
name = center;
pos = (317,250);
},
{
name = ogonek;
pos = (530,10);
},
{
name = top;
pos = (317,500);
},
{
name = topright;
pos = (563,500);
}
);
layerId = m01;
shapes = (
{
closed = 1;
nodes = (
(50,0,l),
(80,0,l),
(80,499,l),
(50,499,l)
);
},
{
closed = 1;
nodes = (
(395,0,l),
(425,0,l),
(425,499,l),
(395,499,l)
);
},
{
closed = 1;
nodes = (
(52,0,l),
(417,0,l),
(417,30,l),
(52,30,l)
);
},
{
closed = 1;
nodes = (
(52,469,l),
(417,469,l),
(417,499,l),
(52,499,l)
);
},
{
closed = 1;
nodes = (
(260,235,o),
(249,224,o),
(235,224,c),
(220,224,o),
(209,235,o),
(209,249,c),
(209,264,o),
(220,275,o),
(235,275,c),
(249,275,o),
(260,264,o),
(260,249,c)
);
}
);
width = 475;
}
);
unicode = 111;
},
{
glyphname = p;
lastChange = "2023-09-30 11:12:16 +0000";
layers = (
{
anchors = (
{
name = bottom;
pos = (226,0);
},
{
name = top;
pos = (226,500);
}
);
layerId = m01;
shapes = (
{
closed = 1;
nodes = (
(50,500,l),
(50,-183,l),
(80,-183,l),
(80,460,l),
(387,75,l),
(417,75,l),
(417,500,l)
);
},
{
closed = 1;
nodes = (
(111,470,l),
(387,470,l),
(387,132,l)
);
}
);
width = 467;
}
);
unicode = 112;
},
{
glyphname = q;
lastChange = "2023-09-30 11:13:08 +0000";
layers = (
{
anchors = (
{
name = bottom;
pos = (539,0);
},
{
name = top;
pos = (539,500);
}
);
layerId = m01;
shapes = (
{
closed = 1;
nodes = (
(50,75,l),
(80,75,l),
(387,460,l),
(387,-183,l),
(417,-183,l),
(417,500,l),
(50,500,l)
);
},
{
closed = 1;
nodes = (
(80,470,l),
(356,470,l),
(80,132,l)
);
},
{
closed = 1;
nodes = (
(448,-132,o),
(437,-144,o),
(437,-158,c),
(437,-172,o),
(448,-183,o),
(462,-183,c),
(476,-183,o),
(488,-172,o),
(488,-158,c),
(488,-144,o),
(476,-132,o),
(462,-132,c)
);
}
);
width = 488;
}
);
unicode = 113;
},
{
glyphname = r;
lastChange = "2023-09-30 11:14:35 +0000";
layers = (
{
anchors = (
{
name = bottom;
pos = (270,0);
},
{
name = top;
pos = (270,500);
}
);
layerId = m01;
shapes = (
{
closed = 1;
nodes = (
(50,500,l),
(50,0,l),
(80,0,l),
(80,470,l),
(117,470,l),
(274,345,l),
(304,345,l),
(304,500,l)
);
},
{
closed = 1;
nodes = (
(165,470,l),
(274,470,l),
(274,384,l)
);
}
);
width = 354;
}
);
unicode = 114;
},
{
glyphname = s;
lastChange = "2023-09-30 11:18:26 +0000";
layers = (
{
anchors = (
{
name = bottom;
pos = (290,0);
},
{
name = top;
pos = (290,500);
}
);
layerId = m01;
shapes = (
{
closed = 1;
nodes = (
(51,499,l),
(51,242,l),
(382,242,l),
(382,30,l),
(50,30,l),
(50,0,l),
(412,0,l),
(412,272,l),
(111,272,l),
(392,469,l),
(392,499,l)
);
},
{
closed = 1;
nodes = (
(81,469,l),
(338,469,l),
(81,288,l)
);
}
);
width = 462;
}
);
unicode = 115;
},
{
glyphname = t;
lastChange = "2023-09-30 11:21:01 +0000";
layers = (
{
anchors = (
{
name = bottom;
pos = (190,0);
},
{
name = center;
pos = (190,250);
},
{
name = top;
pos = (190,500);
},
{
name = topright;
pos = (360,800);
}
);
layerId = m01;
shapes = (
{
closed = 1;
nodes = (
(104,700,l),
(104,499,l),
(0,499,l),
(0,469,l),
(104,469,l),
(104,0,l),
(262,0,l),
(262,29.999,l),
(134,253,l),
(134,469,l),
(238,469,l),
(238,499,l),
(134,499,l),
(134,700,l)
);
},
{
closed = 1;
nodes = (
(134,193,l),
(227,30,l),
(134,29.999,l)
);
}
);
width = 287;
}
);
unicode = 116;
},
{
glyphname = u;
lastChange = "2023-09-30 11:22:29 +0000";
layers = (
{
anchors = (
{
name = bottom;
pos = (662,0);
},
{
name = ogonek;
pos = (862,10);
},
{
name = top;
pos = (662,500);
},
{
name = topright;
pos = (892,500);
}
);
layerId = m01;
shapes = (
{
closed = 1;
nodes = (
(425,500,l),
(425,30,l),
(80,30,l),
(80,500,l),
(50,500,l),
(51,0,l),
(455,0,l),
(455,500,l)
);
},
{
closed = 1;
nodes = (
(278,235,o),
(267,224,o),
(253,224,c),
(238,224,o),
(227,235,o),
(227,250,c),
(227,264,o),
(238,275,o),
(253,275,c),
(267,275,o),
(278,264,o),
(278,250,c)
);
}
);
width = 505;
}
);
unicode = 117;
},
{
glyphname = v;
lastChange = "2023-09-30 11:25:47 +0000";
layers = (
{
anchors = (
{
name = top;
pos = (276,500);
}
);
layerId = m01;
shapes = (
{
closed = 1;
nodes = (
(273,264,o),
(285,275,o),
(285,290,c),
(285,304,o),
(273,315,o),
(259,315,c),
(245,315,o),
(234,304,o),
(234,290,c),
(234,275,o),
(245,264,o),
(259,264,c)
);
},
{
closed = 1;
nodes = (
(259,36,l),
(58,468,l),
(460,468,l)
);
},
{
closed = 1;
nodes = (
(25,500,l),
(25,468,l),
(244,0,l),
(276,0,l),
(493,468,l),
(493,500,l)
);
}
);
width = 518;
}
);
unicode = 118;
},
{
glyphname = w;
lastChange = "2023-09-30 11:26:56 +0000";
layers = (
{
anchors = (
{
name = bottom;
pos = (392,0);
},
{
name = top;
pos = (392,500);
}
);
layerId = m01;
shapes = (
{
closed = 1;
nodes = (
(552,499,l),
(552,52,l),
(335,361,l),
(411,470,l),
(411,499,l),
(222,499,l),
(222,470,l),
(298,361,l),
(80,51,l),
(80,499,l),
(50,499,l),
(50,0,l),
(80,1,l),
(316,335,l),
(552,0,l),
(582,0,l),
(582,499,l)
);
},
{
closed = 1;
nodes = (
(259,469,l),
(374,469,l),
(316,387,l)
);
}
);
width = 632;
}
);
unicode = 119;
},
{
glyphname = x;
lastChange = "2023-09-30 11:28:45 +0000";
layers = (
{
anchors = (
{
name = bottom;
pos = (280,0);
},
{
name = top;
pos = (280,500);
}
);
layerId = m01;
shapes = (
{
closed = 1;
nodes = (
(25,500,l),
(25,470,l),
(240,250,l),
(25,30,l),
(25,0,l),
(493,0,l),
(493,30,l),
(280,250,l),
(493,470,l),
(493,500,l)
);
},
{
closed = 1;
nodes = (
(69,470,l),
(449,470,l),
(259,272,l)
);
},
{
closed = 1;
nodes = (
(259,227,l),
(449,30,l),
(69,30,l)
);
}
);
width = 518;
}
);
unicode = 120;
},
{
glyphname = y;
lastChange = "2023-09-30 11:32:25 +0000";
layers = (
{
anchors = (
{
name = bottom;
pos = (206,0);
},
{
name = top;
pos = (206,500);
}
);
layerId = m01;
shapes = (
{
closed = 1;
nodes = (
(25,500,l),
(25,470,l),
(264,0,l),
(237,-130,l),
(72,1,l),
(42,1,l),
(42,-165,l),
(43,-165,l),
(260,-165,l),
(391,470,l),
(391,500,l)
);
},
{
closed = 1;
nodes = (
(59,470,l),
(360,470,l),
(273,47,l)
);
},
{
closed = 1;
nodes = (
(72,-38,l),
(196,-135,l),
(72,-135,l)
);
}
);
width = 416;
}
);
unicode = 121;
},
